<svg xmlns="http://www.w3.org/2000/svg" xmlns:xlink="http://www.w3.org/1999/xlink" version="1.1" width="1000" height="1000" viewBox="0 0 1000 1000" xml:space="preserve">
<desc>Created with Fabric.js 3.5.0</desc>
<defs>
</defs>
<rect x="0" y="0" width="100%" height="100%" fill="rgba(207,149,149,0)"/>
<g transform="matrix(2.8477 0 0 2.8477 207.1839 533.1269)" id="&#x30ec;&#x30a4;&#x30e4;&#x30fc;_1-2">
<polygon style="stroke: none; stroke-width: 1; stroke-dasharray: none; stroke-linecap: butt; stroke-dashoffset: 0; stroke-linejoin: miter; stroke-miterlimit: 4; is-custom-font: none; font-file-url: none; fill: rgb(255,255,255); fill-rule: nonzero; opacity: 1;" points="3.34,2.567 3.303,2.567 -2.299,-6.588 -6.244,-6.588 -6.244,6.588 -3.344,6.588 -3.344,-2.791 -3.303,-2.791 2.449,6.588 6.244,6.588 6.244,-6.588 3.34,-6.588 3.34,2.567 "/>
</g>
<g transform="matrix(2.8477 0 0 2.8477 236.5369 533.127)" id="&#x30ec;&#x30a4;&#x30e4;&#x30fc;_1-2">
<rect style="stroke: none; stroke-width: 1; stroke-dasharray: none; stroke-linecap: butt; stroke-dashoffset: 0; stroke-linejoin: miter; stroke-miterlimit: 4; is-custom-font: none; font-file-url: none; fill: rgb(255,255,255); fill-rule: nonzero; opacity: 1;" x="-1.4502" y="-6.58835" rx="0" ry="0" width="2.9004" height="13.1767"/>
</g>
<g transform="matrix(2.8477 0 0 2.8477 262.2131 533.1275)" id="&#x30ec;&#x30a4;&#x30e4;&#x30fc;_1-2">
<path style="stroke: none; stroke-width: 1; stroke-dasharray: none; stroke-linecap: butt; stroke-dashoffset: 0; stroke-linejoin: miter; stroke-miterlimit: 4; is-custom-font: none; font-file-url: none; fill: rgb(255,255,255); fill-rule: nonzero; opacity: 1;" transform=" translate(-76.1171, -38.0182)" d="M 76.0587 31.43 H 71.1661 V 44.6064 h 2.9 V 39.47 h 2.1269 c 2.7735 0 4.875 -0.9473 4.875 -4.0361 C 81.0684 32.3008 78.7969 31.43 76.0587 31.43 Z m -0.0528 5.583 H 74.0665 v -3.126 h 1.4922 c 1.1191 0 2.496 0.1855 2.496 1.5469 C 78.0547 36.6592 77.0274 37.0127 76.0059 37.0127 Z" stroke-linecap="round"/>
</g>
<g transform="matrix(2.8477 0 0 2.8477 295.2464 533.1275)" id="&#x30ec;&#x30a4;&#x30e4;&#x30fc;_1-2">
<path style="stroke: none; stroke-width: 1; stroke-dasharray: none; stroke-linecap: butt; stroke-dashoffset: 0; stroke-linejoin: miter; stroke-miterlimit: 4; is-custom-font: none; font-file-url: none; fill: rgb(255,255,255); fill-rule: nonzero; opacity: 1;" transform=" translate(-87.7171, -38.0182)" d="M 87.6641 31.43 h -4.9 V 44.6064 h 2.9082 V 39.47 H 87.793 c 2.7735 0 4.877 -0.9473 4.877 -4.0361 C 92.67 32.3008 90.3985 31.43 87.6641 31.43 Z m -0.0566 5.583 H 85.6719 v -3.126 h 1.4864 c 1.1171 0 2.4941 0.1855 2.4941 1.5469 C 89.6524 36.6592 88.6309 37.0127 87.6075 37.0127 Z" stroke-linecap="round"/>
</g>
<g transform="matrix(2.8477 0 0 2.8477 333.6897 533.1236)" id="&#x30ec;&#x30a4;&#x30e4;&#x30fc;_1-2">
<path style="stroke: none; stroke-width: 1; stroke-dasharray: none; stroke-linecap: butt; stroke-dashoffset: 0; stroke-linejoin: miter; stroke-miterlimit: 4; is-custom-font: none; font-file-url: none; fill: rgb(255,255,255); fill-rule: nonzero; opacity: 1;" transform=" translate(-101.2168, -38.0168)" d="M 101.2188 31.0937 c -4.1191 0 -7.1113 2.6973 -7.1113 6.9229 S 97.1 44.94 101.2188 44.94 c 4.1094 0 7.1074 -2.6992 7.1074 -6.9238 S 105.3282 31.0937 101.2188 31.0937 Z m 0 11.167 a 3.98 3.98 0 0 1 -4.0976 -4.2441 a 4.0974 4.0974 0 1 1 8.1894 0 A 3.9773 3.9773 0 0 1 101.2188 42.2607 Z" stroke-linecap="round"/>
</g>
<g transform="matrix(2.8477 0 0 2.8477 376.5608 533.1269)" id="&#x30ec;&#x30a4;&#x30e4;&#x30fc;_1-2">
<polygon style="stroke: none; stroke-width: 1; stroke-dasharray: none; stroke-linecap: butt; stroke-dashoffset: 0; stroke-linejoin: miter; stroke-miterlimit: 4; is-custom-font: none; font-file-url: none; fill: rgb(255,255,255); fill-rule: nonzero; opacity: 1;" points="3.3395,2.567 3.3025,2.567 -2.3005,-6.588 -6.2445,-6.588 -6.2445,6.588 -3.3395,6.588 -3.3395,-2.791 -3.3085,-2.791 2.4455,6.588 6.2445,6.588 6.2445,-6.588 3.3395,-6.588 3.3395,2.567 "/>
</g>
<g transform="matrix(2.8477 0 0 2.8477 426.4816 533.1226)" id="&#x30ec;&#x30a4;&#x30e4;&#x30fc;_1-2">
<path style="stroke: none; stroke-width: 1; stroke-dasharray: none; stroke-linecap: butt; stroke-dashoffset: 0; stroke-linejoin: miter; stroke-miterlimit: 4; is-custom-font: none; font-file-url: none; fill: rgb(255,255,255); fill-rule: nonzero; opacity: 1;" transform=" translate(-133.8017, -38.0165)" d="M 132.4922 35.1308 c 0 -0.98 1.1348 -1.3593 1.9532 -1.3593 a 2.8142 2.8142 0 0 1 2.1035 0.8769 l 1.99 -2.1758 a 5.9439 5.9439 0 0 0 -4.0371 -1.3789 c -2.59 0 -5.0254 1.4688 -5.0254 4.2813 c 0 4.3916 6.1836 3.0849 6.1836 5.5049 c 0 0.9336 -1.0664 1.3808 -2.0176 1.3808 a 3.2225 3.2225 0 0 1 -2.5293 -1.248 l -2.0664 2.27 a 6.2543 6.2543 0 0 0 4.43 1.6582 c 2.7188 0 5.08 -1.3965 5.08 -4.3379 C 138.5567 35.9873 132.4922 37.5361 132.4922 35.1308 Z" stroke-linecap="round"/>
</g>
<g transform="matrix(2.8477 0 0 2.8477 457.4768 533.1269)" id="&#x30ec;&#x30a4;&#x30e4;&#x30fc;_1-2">
<polygon style="stroke: none; stroke-width: 1; stroke-dasharray: none; stroke-linecap: butt; stroke-dashoffset: 0; stroke-linejoin: miter; stroke-miterlimit: 4; is-custom-font: none; font-file-url: none; fill: rgb(255,255,255); fill-rule: nonzero; opacity: 1;" points="-5.213,-4.022 -1.453,-4.022 -1.453,6.588 1.451,6.588 1.451,-4.022 5.213,-4.022 5.213,-6.588 -5.213,-6.588 -5.213,-4.022 "/>
</g>
<g transform="matrix(2.8477 0 0 2.8477 490.3777 533.1269)" id="&#x30ec;&#x30a4;&#x30e4;&#x30fc;_1-2">
<polygon style="stroke: none; stroke-width: 1; stroke-dasharray: none; stroke-linecap: butt; stroke-dashoffset: 0; stroke-linejoin: miter; stroke-miterlimit: 4; is-custom-font: none; font-file-url: none; fill: rgb(255,255,255); fill-rule: nonzero; opacity: 1;" points="-1.7395,1.225 3.9735,1.225 3.9735,-1.453 -1.7395,-1.453 -1.7395,-3.909 4.3095,-3.909 4.3095,-6.588 -4.6435,-6.588 -4.6435,6.588 4.6435,6.588 4.6435,3.905 -1.7395,3.905 -1.7395,1.225 "/>
</g>
<g transform="matrix(2.8477 0 0 2.8477 524.2682 533.1269)" id="&#x30ec;&#x30a4;&#x30e4;&#x30fc;_1-2">
<polygon style="stroke: none; stroke-width: 1; stroke-dasharray: none; stroke-linecap: butt; stroke-dashoffset: 0; stroke-linejoin: miter; stroke-miterlimit: 4; is-custom-font: none; font-file-url: none; fill: rgb(255,255,255); fill-rule: nonzero; opacity: 1;" points="-1.7405,1.225 3.9725,1.225 3.9725,-1.453 -1.7405,-1.453 -1.7405,-3.909 4.3085,-3.909 4.3085,-6.588 -4.6425,-6.588 -4.6425,6.588 4.6425,6.588 4.6425,3.905 -1.7405,3.905 -1.7405,1.225 "/>
</g>
<g transform="matrix(2.8477 0 0 2.8477 556.7305 533.1269)" id="&#x30ec;&#x30a4;&#x30e4;&#x30fc;_1-2">
<polygon style="stroke: none; stroke-width: 1; stroke-dasharray: none; stroke-linecap: butt; stroke-dashoffset: 0; stroke-linejoin: miter; stroke-miterlimit: 4; is-custom-font: none; font-file-url: none; fill: rgb(255,255,255); fill-rule: nonzero; opacity: 1;" points="-1.239,-6.588 -4.14,-6.588 -4.14,6.588 4.14,6.588 4.14,3.905 -1.239,3.905 -1.239,-6.588 "/>
</g>
<g transform="matrix(2.8477 0 0 2.8477 597.2462 533.1269)" id="&#x30ec;&#x30a4;&#x30e4;&#x30fc;_1-2">
<polygon style="stroke: none; stroke-width: 1; stroke-dasharray: none; stroke-linecap: butt; stroke-dashoffset: 0; stroke-linejoin: miter; stroke-miterlimit: 4; is-custom-font: none; font-file-url: none; fill: rgb(255,255,255); fill-rule: nonzero; opacity: 1;" points="-1.7405,1.225 3.9785,1.225 3.9785,-1.453 -1.7405,-1.453 -1.7405,-3.909 4.3105,-3.909 4.3105,-6.588 -4.6425,-6.588 -4.6425,6.588 4.6425,6.588 4.6425,3.905 -1.7405,3.905 -1.7405,1.225 "/>
</g>
<g transform="matrix(2.8477 0 0 2.8477 635.6987 533.1269)" id="&#x30ec;&#x30a4;&#x30e4;&#x30fc;_1-2">
<polygon style="stroke: none; stroke-width: 1; stroke-dasharray: none; stroke-linecap: butt; stroke-dashoffset: 0; stroke-linejoin: miter; stroke-miterlimit: 4; is-custom-font: none; font-file-url: none; fill: rgb(255,255,255); fill-rule: nonzero; opacity: 1;" points="3.3375,2.567 3.3015,2.567 -2.2975,-6.588 -6.2435,-6.588 -6.2435,6.588 -3.3405,6.588 -3.3405,-2.791 -3.3035,-2.791 2.4485,6.588 6.2435,6.588 6.2435,-6.588 3.3375,-6.588 3.3375,2.567 "/>
</g>
<g transform="matrix(2.8477 0 0 2.8477 676.3147 533.1073)" id="&#x30ec;&#x30a4;&#x30e4;&#x30fc;_1-2">
<path style="stroke: none; stroke-width: 1; stroke-dasharray: none; stroke-linecap: butt; stroke-dashoffset: 0; stroke-linejoin: miter; stroke-miterlimit: 4; is-custom-font: none; font-file-url: none; fill: rgb(255,255,255); fill-rule: nonzero; opacity: 1;" transform=" translate(-221.5333, -38.0111)" d="M 222.6973 39.47 h 2.3614 V 41.61 a 5.7086 5.7086 0 0 1 -2.7364 0.6465 a 3.9741 3.9741 0 0 1 -4.0918 -4.24 a 3.9786 3.9786 0 0 1 4.0918 -4.2451 a 4.0554 4.0554 0 0 1 3.2031 1.248 l 2.0528 -2.23 a 7.4839 7.4839 0 0 0 -5.2559 -1.6933 c -4.1113 0 -7.1074 2.6953 -7.1074 6.9209 s 2.9961 6.9238 7.1074 6.9238 a 11.8218 11.8218 0 0 0 5.5293 -1.2656 V 36.7881 h -5.1543 Z" stroke-linecap="round"/>
</g>
<g transform="matrix(2.8477 0 0 2.8477 705.8846 533.127)" id="&#x30ec;&#x30a4;&#x30e4;&#x30fc;_1-2">
<rect style="stroke: none; stroke-width: 1; stroke-dasharray: none; stroke-linecap: butt; stroke-dashoffset: 0; stroke-linejoin: miter; stroke-miterlimit: 4; is-custom-font: none; font-file-url: none; fill: rgb(255,255,255); fill-rule: nonzero; opacity: 1;" x="-1.45215" y="-6.58835" rx="0" ry="0" width="2.9043" height="13.1767"/>
</g>
<g transform="matrix(2.8477 0 0 2.8477 735.2429 533.1269)" id="&#x30ec;&#x30a4;&#x30e4;&#x30fc;_1-2">
<polygon style="stroke: none; stroke-width: 1; stroke-dasharray: none; stroke-linecap: butt; stroke-dashoffset: 0; stroke-linejoin: miter; stroke-miterlimit: 4; is-custom-font: none; font-file-url: none; fill: rgb(255,255,255); fill-rule: nonzero; opacity: 1;" points="3.3415,2.567 3.3025,2.567 -2.2985,-6.588 -6.2425,-6.588 -6.2425,6.588 -3.3415,6.588 -3.3415,-2.791 -3.3045,-2.791 2.4475,6.588 6.2425,6.588 6.2425,-6.588 3.3415,-6.588 3.3415,2.567 "/>
</g>
<g transform="matrix(2.8477 0 0 2.8477 773.6897 533.1269)" id="&#x30ec;&#x30a4;&#x30e4;&#x30fc;_1-2">
<polygon style="stroke: none; stroke-width: 1; stroke-dasharray: none; stroke-linecap: butt; stroke-dashoffset: 0; stroke-linejoin: miter; stroke-miterlimit: 4; is-custom-font: none; font-file-url: none; fill: rgb(255,255,255); fill-rule: nonzero; opacity: 1;" points="-1.7395,1.225 3.9755,1.225 3.9755,-1.453 -1.7395,-1.453 -1.7395,-3.909 4.3095,-3.909 4.3095,-6.588 -4.6435,-6.588 -4.6435,6.588 4.6435,6.588 4.6435,3.905 -1.7395,3.905 -1.7395,1.225 "/>
</g>
<g transform="matrix(2.8477 0 0 2.8477 807.5816 533.1269)" id="&#x30ec;&#x30a4;&#x30e4;&#x30fc;_1-2">
<polygon style="stroke: none; stroke-width: 1; stroke-dasharray: none; stroke-linecap: butt; stroke-dashoffset: 0; stroke-linejoin: miter; stroke-miterlimit: 4; is-custom-font: none; font-file-url: none; fill: rgb(255,255,255); fill-rule: nonzero; opacity: 1;" points="-1.742,1.225 3.975,1.225 3.975,-1.453 -1.742,-1.453 -1.742,-3.909 4.311,-3.909 4.311,-6.588 -4.643,-6.588 -4.643,6.588 4.643,6.588 4.643,3.905 -1.742,3.905 -1.742,1.225 "/>
</g>
<g transform="matrix(2.8477 0 0 2.8477 843.2957 533.127)" id="&#x30ec;&#x30a4;&#x30e4;&#x30fc;_1-2">
<path style="stroke: none; stroke-width: 1; stroke-dasharray: none; stroke-linecap: butt; stroke-dashoffset: 0; stroke-linejoin: miter; stroke-miterlimit: 4; is-custom-font: none; font-file-url: none; fill: rgb(255,255,255); fill-rule: nonzero; opacity: 1;" transform=" translate(-280.1703, -38.0181)" d="M 284.9571 35.4336 c 0 -3.0742 -2.2754 -4.0039 -4.9707 -4.0039 h -5.1 V 44.6064 h 2.9023 V 39.3389 h 1.4356 l 2.75 5.2675 h 3.48 L 282.1075 39.04 A 3.39 3.39 0 0 0 284.9571 35.4336 Z M 279.502 36.88 h -1.7129 V 33.8867 h 1.9 c 1.0606 0 2.252 0.2031 2.252 1.5254 C 281.9415 36.8447 280.5606 36.88 279.502 36.88 Z" stroke-linecap="round"/>
</g>
<g transform="matrix(2.8477 0 0 2.8477 866.5794 533.127)" id="&#x30ec;&#x30a4;&#x30e4;&#x30fc;_1-2">
<rect style="stroke: none; stroke-width: 1; stroke-dasharray: none; stroke-linecap: butt; stroke-dashoffset: 0; stroke-linejoin: miter; stroke-miterlimit: 4; is-custom-font: none; font-file-url: none; fill: rgb(255,255,255); fill-rule: nonzero; opacity: 1;" x="-1.4502" y="-6.58835" rx="0" ry="0" width="2.9004" height="13.1767"/>
</g>
<g transform="matrix(2.8477 0 0 2.8477 895.9429 533.1269)" id="&#x30ec;&#x30a4;&#x30e4;&#x30fc;_1-2">
<polygon style="stroke: none; stroke-width: 1; stroke-dasharray: none; stroke-linecap: butt; stroke-dashoffset: 0; stroke-linejoin: miter; stroke-miterlimit: 4; is-custom-font: none; font-file-url: none; fill: rgb(255,255,255); fill-rule: nonzero; opacity: 1;" points="3.34,2.567 3.303,2.567 -2.3,-6.588 -6.244,-6.588 -6.244,6.588 -3.343,6.588 -3.343,-2.791 -3.304,-2.791 2.446,6.588 6.244,6.588 6.244,-6.588 3.34,-6.588 3.34,2.567 "/>
</g>
<g transform="matrix(2.8477 0 0 2.8477 936.5484 533.1069)" id="&#x30ec;&#x30a4;&#x30e4;&#x30fc;_1-2">
<path style="stroke: none; stroke-width: 1; stroke-dasharray: none; stroke-linecap: butt; stroke-dashoffset: 0; stroke-linejoin: miter; stroke-miterlimit: 4; is-custom-font: none; font-file-url: none; fill: rgb(255,255,255); fill-rule: nonzero; opacity: 1;" transform=" translate(-312.9171, -38.011)" d="M 314.084 36.7881 V 39.47 h 2.3614 V 41.61 a 5.7079 5.7079 0 0 1 -2.7364 0.6465 a 3.9766 3.9766 0 0 1 -4.0937 -4.24 a 3.9812 3.9812 0 0 1 4.0937 -4.2451 a 4.0557 4.0557 0 0 1 3.2032 1.248 l 2.0468 -2.23 a 7.4563 7.4563 0 0 0 -5.25 -1.6933 c -4.1132 0 -7.1113 2.6953 -7.1113 6.9209 s 2.9981 6.9238 7.1113 6.9238 a 11.8142 11.8142 0 0 0 5.5274 -1.2656 V 36.7881 Z" stroke-linecap="round"/>
</g>
<g transform="matrix(2.8477 0 0 2.8477 98.9314 520.8827)" id="&#x30ec;&#x30a4;&#x30e4;&#x30fc;_1-2">
<radialGradient id="SVGID_9" gradientUnits="userSpaceOnUse" gradientTransform="matrix(1 0 0 1 0 0)" cx="23.9559" cy="27.8969" r="26.0045" fx="23.9559" fy="27.8969">
<stop offset="0%" style="stop-color:rgb(0,167,234);stop-opacity: 1"/>
<stop offset="13.450000000000001%" style="stop-color:rgb(2,159,229);stop-opacity: 1"/>
<stop offset="33.75%" style="stop-color:rgb(6,139,213);stop-opacity: 1"/>
<stop offset="58.37%" style="stop-color:rgb(13,105,189);stop-opacity: 1"/>
<stop offset="86.13%" style="stop-color:rgb(23,58,155);stop-opacity: 1"/>
<stop offset="100%" style="stop-color:rgb(29,32,136);stop-opacity: 1"/>
</radialGradient>
<path style="stroke: none; stroke-width: 1; stroke-dasharray: none; stroke-linecap: butt; stroke-dashoffset: 0; stroke-linejoin: miter; stroke-miterlimit: 4; is-custom-font: none; font-file-url: none; fill: url(#SVGID_9); fill-rule: nonzero; opacity: 1;" transform=" translate(-18.779, -33.7183)" d="M 36.8926 28.85 A 18.7291 18.7291 0 1 0 0.7012 38.5088 c 2.668 9.9961 13.0254 16.2656 22.9258 13.2636 C 33.1524 48.8838 39.5606 38.8408 36.8926 28.85 Z" stroke-linecap="round"/>
</g>
<g transform="matrix(2.8477 0 0 2.8477 101.1322 499.9998)" id="&#x30ec;&#x30a4;&#x30e4;&#x30fc;_1-2">
<linearGradient id="SVGID_10" gradientUnits="userSpaceOnUse" gradientTransform="matrix(1 0 0 1 0 0)" x1="23.6671" y1="19.9842" x2="4.5855" y2="56.2567">
<stop offset="1.1199999999999999%" style="stop-color:rgb(209,0,14);stop-opacity: 1"/>
<stop offset="47.75%" style="stop-color:rgb(230,0,18);stop-opacity: 1"/>
<stop offset="100%" style="stop-color:rgb(235,97,53);stop-opacity: 1"/>
</linearGradient>
<path style="stroke: none; stroke-width: 1; stroke-dasharray: none; stroke-linecap: butt; stroke-dashoffset: 0; stroke-linejoin: miter; stroke-miterlimit: 4; is-custom-font: none; font-file-url: none; fill: url(#SVGID_10); fill-rule: nonzero; opacity: 1;" transform=" translate(-19.5518, -26.3851)" d="M 33.0938 16.01 C 31.01 17.6953 11.8047 27.8828 7.1172 40.7646 C 3.8848 49.6474 13.6114 53.3115 22.09 52.167 c 0 0 -27.1 5.4687 -21.2676 -16.5264 C 6.2188 15.2871 39.1036 0 39.1036 0 Z" stroke-linecap="round"/>
</g>
</svg>